<?xml version="1.0" encoding="UTF-8"?>
<svg width="500px" height="200px" viewBox="0 0 500 200" version="1.1"
  xmlns="http://www.w3.org/2000/svg"
  xmlns:xlink="http://www.w3.org/1999/xlink">
  <title>github-readme-cards</title>
  <g id="github-readme-cards" stroke="none" stroke-width="1" fill="none" fill-rule="evenodd">
    <g id="Stats">
      <rect id="Rectangle" stroke="#E1E4E8" fill="#FFFFFF" x="0.5" y="0.5" width="499" height="199" rx="6"></rect>
      <text id="@${username}'s-GitHu" font-family="SFProText-Semibold, SF Pro Text" font-size="18" font-weight="500" fill="#000000">
        <tspan x="20" y="37">@${username}'s GitHub Stats</tspan>
      </text>
      <text id="Stars:-${STAR}" font-family="SFProText-Medium, SF Pro Text" font-size="14" font-weight="400" fill="#000000">
        <tspan x="46" y="69">Stars: ${STAR}</tspan>
      </text>
      <text id="PRs:-${PR}" font-family="SFProText-Medium, SF Pro Text" font-size="14" font-weight="400" fill="#000000">
        <tspan x="46" y="121">PRs: ${PR}</tspan>
      </text>
      <g id="PR" transform="translate(20.000000, 108.000000)">
        <rect id="Rectangle" x="0" y="0" width="16" height="16"></rect>
        <path d="M10.1,5.66830667 C10.1,5.73226537 10.0766489,5.7940237 10.0343324,5.84198235 C9.93841401,5.9506899 9.77253187,5.96105754 9.66382432,5.86513911 L9.66382432,5.86513911 L7.34807676,3.82183244 C7.3398834,3.814603 7.33214944,3.80686904 7.32492,3.79867568 C7.22900158,3.68996813 7.23936921,3.52408599 7.34807676,3.42816756 L7.34807676,3.42816756 L9.66382432,1.38486089 C9.71178297,1.34254444 9.7735413,1.31919333 9.8375,1.31919333 C9.98247475,1.31919333 10.1,1.43671858 10.1,1.58169333 L10.1,1.58169333 L10.099,2.997 L10.4875,2.99780192 C11.9566797,2.99780192 13.1579879,4.14469608 13.2449584,5.59201812 L13.25,5.76030192 L13.2505732,9.86463068 C14.2645539,10.1833735 15,11.1308004 15,12.25 C15,13.6307119 13.8807119,14.75 12.5,14.75 C11.1192881,14.75 10,13.6307119 10,12.25 C10,11.1304347 10.7359268,10.1827543 11.750421,9.86431839 L11.75,5.76030192 C11.75,5.10662114 11.2532066,4.56897268 10.6165833,4.50432006 L10.4875,4.49780192 L10.099,4.497 Z M3.5,1 C4.88071187,1 6,2.11928813 6,3.5 C6,4.61919956 5.26455392,5.56662648 4.25057321,5.88536932 L4.25057321,9.86463068 C5.26455392,10.1833735 6,11.1308004 6,12.25 C6,13.6307119 4.88071187,14.75 3.5,14.75 C2.11928813,14.75 1,13.6307119 1,12.25 C1,11.1304347 1.73592684,10.1827543 2.75042097,9.86431839 L2.75042097,5.88568161 C1.73592684,5.5672457 1,4.61956531 1,3.5 C1,2.11928813 2.11928813,1 3.5,1 Z M12.5,11.25 C11.9477153,11.25 11.5,11.6977153 11.5,12.25 C11.5,12.8022847 11.9477153,13.25 12.5,13.25 C13.0522847,13.25 13.5,12.8022847 13.5,12.25 C13.5,11.6977153 13.0522847,11.25 12.5,11.25 Z M3.5,11.25 C2.94771525,11.25 2.5,11.6977153 2.5,12.25 C2.5,12.8022847 2.94771525,13.25 3.5,13.25 C4.05228475,13.25 4.5,12.8022847 4.5,12.25 C4.5,11.6977153 4.05228475,11.25 3.5,11.25 Z M3.5,2.5 C2.94771525,2.5 2.5,2.94771525 2.5,3.5 C2.5,4.05228475 2.94771525,4.5 3.5,4.5 C4.05228475,4.5 4.5,4.05228475 4.5,3.5 C4.5,2.94771525 4.05228475,2.5 3.5,2.5 Z" id="Combined-Shape" fill="#000000" fill-rule="nonzero"></path>
      </g>
      <text id="Commits:-${COMMIT}" font-family="SFProText-Medium, SF Pro Text" font-size="14" font-weight="400" fill="#000000">
        <tspan x="46" y="95">Commits: ${COMMIT}</tspan>
      </text>
      <g id="Score" transform="translate(330.000000, 30.000000)">
        <circle id="Oval" stroke-opacity="0.1" stroke="#000000" stroke-width="2" fill="#83CF7F" cx="70" cy="70" r="69"></circle>
        <text id="🤩" transform="translate(70.000000, 70.000000) rotate(7.000000) translate(-70.000000, -70.000000) " font-family="AppleColorEmoji, Apple Color Emoji" font-size="70" font-weight="normal" fill="#000000">
          <tspan x="35" y="94">🤩</tspan>
        </text>
      </g>
      <g id="Commit" transform="translate(20.000000, 82.000000)">
        <rect id="Rectangle" x="0" y="0" width="16" height="16"></rect>
        <path d="M8,5 C9.39995525,5 10.5759425,5.95892101 10.9069648,7.25576615 L11,7.25 L16,7.25 C16.4142136,7.25 16.75,7.58578644 16.75,8 C16.75,8.37969577 16.4678461,8.69349096 16.1017706,8.74315338 L16,8.75 L11,8.75 L10.9069648,8.74423385 C10.5759425,10.041079 9.39995525,11 8,11 C6.60004475,11 5.42405751,10.041079 5.09303515,8.74423385 L5,8.75 L0,8.75 C-0.414213562,8.75 -0.75,8.41421356 -0.75,8 C-0.75,7.62030423 -0.467846118,7.30650904 -0.101770557,7.25684662 L0,7.25 L5,7.25 L5.09303515,7.25576615 C5.42405751,5.95892101 6.60004475,5 8,5 Z M8,6.5 C7.17157288,6.5 6.5,7.17157288 6.5,8 C6.5,8.82842712 7.17157288,9.5 8,9.5 C8.82842712,9.5 9.5,8.82842712 9.5,8 C9.5,7.17157288 8.82842712,6.5 8,6.5 Z" id="Combined-Shape" fill="#000000" fill-rule="nonzero"></path>
      </g>
      <text id="Contributed-to:-${RE" font-family="SFProText-Medium, SF Pro Text" font-size="14" font-weight="400" fill="#000000">
        <tspan x="46" y="147">Contributed to: ${REPO}</tspan>
      </text>
      <g id="Repo" transform="translate(20.000000, 134.000000)">
        <rect id="Rectangle" x="0" y="0" width="16" height="16"></rect>
        <path d="M7.33333333,12.4444444 L7.33333333,15.421656 L6,14.3251277 L4.66666667,15.421656 L4.66666667,12.4444444 L7.33333333,12.4444444 Z M12.6666667,-5.1159077e-13 C13.1575864,-5.1159077e-13 13.5555556,0.397969111 13.5555556,0.888888889 L13.5555556,13.3333333 C13.5555556,13.7864901 13.2164576,14.1604462 12.778167,14.2152965 L12.6666667,14.2222222 L12.6666667,14.2222222 L8.2,14.222 L8.2,12.888 L12.222,12.888 L12.222,11.111 L4.22222222,11.1111111 C3.7690655,11.1111111 3.39510935,11.4502091 3.34025904,11.8884997 L3.33333333,12 C3.33333333,12.3377696 3.52172835,12.6315372 3.79917105,12.7819554 L3.79924438,14.1820167 C2.77423939,13.9844936 2,13.0826635 2,12 L2,2.66666667 C2,1.19390733 3.19390733,-5.1159077e-13 4.66666667,-5.1159077e-13 L12.6666667,-5.1159077e-13 Z M12.222,1.333 L4.66666667,1.33333333 C3.97360345,1.33333333 3.40404562,1.86212274 3.33943696,2.53825777 L3.33333333,2.66666667 L3.33352481,9.96260243 C3.6056798,9.84372351 3.90624979,9.77777778 4.22222222,9.77777778 L12.222,9.777 L12.222,1.333 Z M5.55555556,7.11111111 C5.80101544,7.11111111 6,7.31009567 6,7.55555556 L6,8 C6,8.24545989 5.80101544,8.44444444 5.55555556,8.44444444 L5.11111111,8.44444444 C4.86565122,8.44444444 4.66666667,8.24545989 4.66666667,8 L4.66666667,7.55555556 C4.66666667,7.31009567 4.86565122,7.11111111 5.11111111,7.11111111 L5.55555556,7.11111111 Z M5.55555556,4.88888889 C5.80101544,4.88888889 6,5.08787344 6,5.33333333 L6,5.77777778 C6,6.02323767 5.80101544,6.22222222 5.55555556,6.22222222 L5.11111111,6.22222222 C4.86565122,6.22222222 4.66666667,6.02323767 4.66666667,5.77777778 L4.66666667,5.33333333 C4.66666667,5.08787344 4.86565122,4.88888889 5.11111111,4.88888889 L5.55555556,4.88888889 Z M5.55555556,2.66666667 C5.80101544,2.66666667 6,2.86565122 6,3.11111111 L6,3.55555556 C6,3.80101544 5.80101544,4 5.55555556,4 L5.11111111,4 C4.86565122,4 4.66666667,3.80101544 4.66666667,3.55555556 L4.66666667,3.11111111 C4.66666667,2.86565122 4.86565122,2.66666667 5.11111111,2.66666667 L5.55555556,2.66666667 Z" id="Combined-Shape" fill="#000000" fill-rule="nonzero"></path>
      </g>
      <g id="Star" transform="translate(20.000000, 56.000000)">
        <rect id="Rectangle" x="0" y="0" width="16" height="16"></rect>
        <path d="M7.81923774,2.06092793 L9.89492423,5.45551644 L13.8923459,6.03637582 L11.0001675,8.98473389 L11.6883526,12.9971607 L7.99056517,11.1576284 L4.38718134,13.0520394 L4.99400143,8.96678778 L2.07880267,6.1251713 L6.15162554,5.43987932 L7.81923774,2.06092793 Z" stroke="#000000" stroke-width="1.5"></path>
      </g>
    </g>
  </g>
</svg>